<?xml version="1.0"?><svg fill="#000000" xmlns="http://www.w3.org/2000/svg"  viewBox="0 0 100 100" width="100px" height="100px">    <path d="M 30.574219 18 C 23.406219 18 17.574219 23.832 17.574219 31 L 17.574219 70 C 17.574219 77.168 23.406219 83 30.574219 83 L 69.574219 83 C 76.742219 83 82.574219 77.168 82.574219 70 L 82.574219 31 C 82.574219 23.832 76.742219 18 69.574219 18 L 30.574219 18 z M 30.574219 20 L 69.574219 20 C 75.639219 20 80.574219 24.935 80.574219 31 L 80.574219 70 C 80.574219 76.065 75.639219 81 69.574219 81 L 30.574219 81 C 24.509219 81 19.574219 76.065 19.574219 70 L 19.574219 31 C 19.574219 24.935 24.509219 20 30.574219 20 z M 33.412109 23 C 27.436109 23 22.574219 27.861891 22.574219 33.837891 L 22.574219 67.162109 C 22.574219 73.138109 27.436109 78 33.412109 78 L 66.738281 78 C 72.713281 78 77.574219 73.138109 77.574219 67.162109 L 77.574219 48.5 C 77.574219 48.224 77.350219 48 77.074219 48 C 76.798219 48 76.574219 48.224 76.574219 48.5 L 76.574219 67.162109 C 76.574219 72.586109 72.162281 77 66.738281 77 L 33.412109 77 C 27.988109 77 23.574219 72.586109 23.574219 67.162109 L 23.574219 33.837891 C 23.574219 28.413891 27.988109 24 33.412109 24 L 67.074219 24 C 67.350219 24 67.574219 23.776 67.574219 23.5 C 67.574219 23.224 67.350219 23 67.074219 23 L 33.412109 23 z M 38.669922 36.080078 C 38.280672 36.080078 37.891375 36.221406 37.609375 36.503906 C 37.024375 37.088906 37.024375 38.038047 37.609375 38.623047 L 48.568359 49.583984 L 37.609375 60.544922 C 37.024375 61.129922 37.024375 62.080062 37.609375 62.664062 C 37.892375 62.946063 38.268922 63.103516 38.669922 63.103516 C 39.070922 63.103516 39.448469 62.946063 39.730469 62.664062 L 50.689453 51.705078 L 60.943359 61.957031 C 61.529359 62.542031 62.478453 62.540031 63.064453 61.957031 C 63.347453 61.674031 63.503906 61.298484 63.503906 60.896484 C 63.503906 60.494484 63.346453 60.117937 63.064453 59.835938 L 52.810547 49.582031 L 63.064453 39.332031 C 63.347453 39.049031 63.503906 38.672484 63.503906 38.271484 C 63.503906 37.870484 63.346453 37.493938 63.064453 37.210938 C 62.476453 36.625938 61.527359 36.627938 60.943359 37.210938 L 50.689453 47.462891 L 39.730469 36.503906 C 39.448469 36.221406 39.059172 36.080078 38.669922 36.080078 z M 77.074219 37 C 76.798219 37 76.574219 37.224 76.574219 37.5 L 76.574219 39.5 C 76.574219 39.776 76.798219 40 77.074219 40 C 77.350219 40 77.574219 39.776 77.574219 39.5 L 77.574219 37.5 C 77.574219 37.224 77.350219 37 77.074219 37 z M 38.669922 37.0625 C 38.803922 37.0625 38.929437 37.114984 39.023438 37.208984 L 50.337891 48.521484 C 50.532891 48.716484 50.849922 48.716484 51.044922 48.521484 L 61.650391 37.914062 C 61.844391 37.720062 62.161422 37.719062 62.357422 37.914062 C 62.552422 38.109062 62.552422 38.426094 62.357422 38.621094 L 51.751953 49.228516 C 51.658953 49.322516 51.605469 49.449031 51.605469 49.582031 C 51.605469 49.715031 51.657953 49.8435 51.751953 49.9375 L 62.357422 60.542969 C 62.552422 60.737969 62.552422 61.056 62.357422 61.25 C 62.163422 61.444 61.846391 61.445 61.650391 61.25 L 51.042969 50.644531 C 50.847969 50.449531 50.530938 50.449531 50.335938 50.644531 L 39.023438 61.957031 C 38.836437 62.145031 38.504406 62.145031 38.316406 61.957031 C 38.122406 61.762031 38.122406 61.445 38.316406 61.25 L 49.628906 49.9375 C 49.823906 49.7425 49.823906 49.425469 49.628906 49.230469 L 38.316406 37.916016 C 38.121406 37.721016 38.121406 37.403984 38.316406 37.208984 C 38.410406 37.114984 38.534922 37.0625 38.669922 37.0625 z M 77.074219 41 C 76.798219 41 76.574219 41.224 76.574219 41.5 L 76.574219 45.5 C 76.574219 45.776 76.798219 46 77.074219 46 C 77.350219 46 77.574219 45.776 77.574219 45.5 L 77.574219 41.5 C 77.574219 41.224 77.350219 41 77.074219 41 z"/></svg>