<svg fill="#000000" xmlns="http://www.w3.org/2000/svg"  viewBox="0 0 100 100" width="100px" height="100px"><path d="M 25 20 C 22.250484 20 20 22.250484 20 25 L 20 70 C 20 72.749516 22.250484 75 25 75 L 26 75 L 26 76 C 26 78.749516 28.250484 81 31 81 L 65 81 A 1.0001 1.0001 0 1 0 65 79 L 31 79 C 29.331516 79 28 77.668484 28 76 L 28 31 C 28 29.331516 29.331516 28 31 28 L 76 28 C 77.668484 28 79 29.331516 79 31 L 79 65 A 1.0001 1.0001 0 1 0 81 65 L 81 31 C 81 28.250484 78.749516 26 76 26 L 75 26 L 75 25 C 75 22.250484 72.749516 20 70 20 L 25 20 z M 25 22 L 70 22 C 71.668484 22 73 23.331516 73 25 L 73 26 L 31 26 C 28.250484 26 26 28.250484 26 31 L 26 73 L 25 73 C 23.331516 73 22 71.668484 22 70 L 22 25 C 22 23.331516 23.331516 22 25 22 z M 35.5 31 C 33.020742 31 31 33.020742 31 35.5 L 31 71.5 C 31 73.979258 33.020742 76 35.5 76 L 60.5 76 A 0.50005 0.50005 0 1 0 60.5 75 L 35.5 75 C 33.561258 75 32 73.438742 32 71.5 L 32 35.5 C 32 33.561258 33.561258 32 35.5 32 L 61.5 32 A 0.50005 0.50005 0 1 0 61.5 31 L 35.5 31 z M 75.492188 37.992188 A 0.50005 0.50005 0 0 0 75 38.5 L 75 39.5 A 0.50005 0.50005 0 1 0 76 39.5 L 76 38.5 A 0.50005 0.50005 0 0 0 75.492188 37.992188 z M 75.492188 40.992188 A 0.50005 0.50005 0 0 0 75 41.5 L 75 45.5 A 0.50005 0.50005 0 1 0 76 45.5 L 76 41.5 A 0.50005 0.50005 0 0 0 75.492188 40.992188 z M 75.492188 46.992188 A 0.50005 0.50005 0 0 0 75 47.5 L 75 60.5 A 0.50005 0.50005 0 1 0 76 60.5 L 76 47.5 A 0.50005 0.50005 0 0 0 75.492188 46.992188 z M 48.699219 47 A 1.0001 1.0001 0 0 0 48.011719 47.292969 L 47.292969 48.011719 A 1.0001 1.0001 0 0 0 47.072266 49.089844 L 52.822266 63.464844 A 1.0001 1.0001 0 0 0 53.042969 63.800781 L 76.511719 87.267578 L 77.136719 87.898438 A 1.0001 1.0001 0 0 0 77.138672 87.900391 C 78.240828 89.002547 79.887128 89.19948 81.470703 88.818359 C 83.054279 88.437238 84.680453 87.495329 86.087891 86.087891 C 87.495329 84.680453 88.437111 83.056157 88.818359 81.472656 C 89.199607 79.889156 89.001986 78.240965 87.900391 77.138672 A 1.0001 1.0001 0 0 0 87.898438 77.136719 L 87.269531 76.511719 L 63.800781 53.042969 A 1.0001 1.0001 0 0 0 63.464844 52.822266 L 49.089844 47.072266 A 1.0001 1.0001 0 0 0 48.699219 47 z M 49.316406 49.316406 L 52.644531 50.648438 L 50.648438 52.644531 L 49.316406 49.316406 z M 53.654297 51.052734 L 61.314453 54.115234 L 54.115234 61.314453 L 51.052734 53.654297 L 53.654297 51.052734 z M 63.09375 55.164062 L 79.757812 71.828125 L 78.646484 72.939453 L 70.853516 65.146484 A 0.50005 0.50005 0 0 0 70.494141 64.994141 A 0.50005 0.50005 0 0 0 70.146484 65.853516 L 77.939453 73.646484 L 76.146484 75.439453 L 74.853516 74.146484 A 0.50005 0.50005 0 0 0 74.494141 73.994141 A 0.50005 0.50005 0 0 0 74.146484 74.853516 L 75.439453 76.146484 L 73.646484 77.939453 L 61.853516 66.146484 A 0.50005 0.50005 0 0 0 61.494141 65.994141 A 0.50005 0.50005 0 0 0 61.146484 66.853516 L 72.939453 78.646484 L 71.828125 79.757812 L 55.164062 63.09375 L 58.775391 59.482422 L 72.146484 72.853516 A 0.50005 0.50005 0 1 0 72.853516 72.146484 L 59.482422 58.775391 L 61.275391 56.982422 L 68.146484 63.853516 A 0.50005 0.50005 0 1 0 68.853516 63.146484 L 61.982422 56.275391 L 63.09375 55.164062 z M 58.494141 62.994141 A 0.50005 0.50005 0 0 0 58.146484 63.853516 L 59.146484 64.853516 A 0.50005 0.50005 0 1 0 59.853516 64.146484 L 58.853516 63.146484 A 0.50005 0.50005 0 0 0 58.494141 62.994141 z M 81.171875 73.242188 L 84.111328 76.181641 L 79.146484 81.146484 A 0.50005 0.50005 0 1 0 79.853516 81.853516 L 84.818359 76.888672 L 85.855469 77.925781 A 1.0001 1.0001 0 0 0 85.857422 77.927734 L 86.488281 78.554688 C 86.964412 79.032664 87.149921 79.862031 86.875 81.003906 C 86.599748 82.147156 85.84739 83.500266 84.673828 84.673828 C 83.500266 85.84739 82.147081 86.599871 81.003906 86.875 C 79.862106 87.149798 79.032801 86.96485 78.554688 86.488281 L 78.552734 86.486328 L 77.927734 85.857422 A 1.0001 1.0001 0 0 0 77.925781 85.855469 L 76.888672 84.818359 L 77.853516 83.853516 A 0.50005 0.50005 0 0 0 77.490234 82.996094 A 0.50005 0.50005 0 0 0 77.146484 83.146484 L 76.181641 84.111328 L 73.242188 81.171875 L 81.171875 73.242188 z"/></svg>