<svg width="77" height="77" viewBox="0 0 77 77" fill="none" xmlns="http://www.w3.org/2000/svg">
<path d="M18.2439 7C16.5992 7 14.9635 7.24927 13.3631 7.75163C13.3624 7.75163 13.3617 7.75163 13.3611 7.75163C5.18493 10.3322 0.0144269 18.9035 0.0144269 29.3426C0.0144269 31.1404 0.237208 32.9076 0.629726 34.6397C0.654476 34.7742 0.70609 34.9024 0.781469 35.0164C0.856848 35.1305 0.954438 35.2281 1.06838 35.3034C1.18232 35.3787 1.31027 35.4301 1.44454 35.4546C1.57881 35.4791 1.71664 35.4762 1.84974 35.446C1.98285 35.4157 2.1085 35.3589 2.21914 35.2788C2.32978 35.1987 2.42313 35.097 2.49359 34.9798C2.56406 34.8627 2.61018 34.7325 2.62919 34.597C2.6482 34.4615 2.63971 34.3236 2.60422 34.1915C2.24107 32.589 2.04036 30.9728 2.04036 29.3426C2.04036 19.5693 6.78603 11.9561 13.9685 9.6892C15.3765 9.24725 16.8031 9.03079 18.2439 9.03079C24.5094 9.03079 31.2376 13.4472 36.7523 21.3325C37.6028 22.5638 39.4117 22.5638 40.2621 21.3325C47.0451 11.6417 55.5321 7.32214 63.0479 9.6892C70.2272 11.956 74.9741 19.5693 74.9741 29.3426C74.976 38.5457 68.7565 47.3588 60.9488 54.6878C53.3192 61.8496 44.3369 67.4794 38.5033 70.7952C30.4566 66.219 16.3785 57.1477 8.28832 46.0034C8.21175 45.8914 8.11358 45.796 7.99961 45.7228C7.88563 45.6495 7.75816 45.5999 7.62474 45.5769C7.49131 45.5539 7.35464 45.5579 7.22279 45.5887C7.09093 45.6195 6.96658 45.6765 6.85708 45.7563C6.74757 45.8361 6.65514 45.9371 6.58523 46.0533C6.51533 46.1696 6.46937 46.2987 6.45008 46.433C6.43079 46.5673 6.43856 46.7042 6.47293 46.8354C6.50729 46.9667 6.56755 47.0897 6.65016 47.1972C15.2428 59.0337 29.9373 68.3156 38.0146 72.8696C38.1662 72.9551 38.3372 73 38.5112 73C38.6851 73 38.8561 72.9551 39.0078 72.8696C44.9039 69.544 54.3297 63.6845 62.3337 56.1712C70.3377 48.6579 77.0021 39.4513 77 29.3426C77 18.9035 71.8306 10.3323 63.6573 7.75163C63.6567 7.75163 63.656 7.75163 63.6553 7.75163C55.0525 5.04224 45.682 10.0512 38.6002 20.1723C38.5989 20.1743 38.5976 20.1763 38.5962 20.1783C38.6079 20.1614 38.4065 20.1614 38.4182 20.1783C38.4169 20.1763 38.4156 20.1743 38.4142 20.1723C32.6595 11.9411 25.4472 7 18.2439 7ZM17.9273 12.077C16.8229 12.077 15.7276 12.2479 14.6669 12.5807C8.79207 14.4341 5.08125 20.9617 5.08125 29.0729C5.08125 31.0987 5.43864 33.1078 6.07443 35.08C6.09286 35.1457 6.12433 35.2071 6.16697 35.2604C6.2096 35.3136 6.26253 35.3577 6.32257 35.39C6.38261 35.4223 6.44853 35.4422 6.51639 35.4483C6.58425 35.4545 6.65266 35.4469 6.71751 35.4259C6.78236 35.4049 6.84233 35.3711 6.89382 35.3264C6.94531 35.2816 6.98727 35.2269 7.01719 35.1656C7.04711 35.1042 7.06436 35.0374 7.06793 34.9692C7.07149 34.901 7.06129 34.8328 7.03794 34.7686C6.4298 32.8822 6.09421 30.9787 6.09421 29.0729C6.09421 21.2708 9.63078 15.2328 14.9696 13.5485C15.9348 13.2457 16.9269 13.0924 17.9273 13.0924C22.7107 13.0924 28.2342 16.6747 32.9359 23.393C34.1958 25.2099 36.2799 26.2845 38.5151 26.2845H38.523C40.7596 26.2845 42.8415 25.2036 44.0785 23.4168C46.9343 19.3358 50.0618 16.4192 53.1517 14.7563C56.242 13.0931 59.2747 12.6761 62.0409 13.5485C65.0058 14.4805 67.4039 16.7396 68.9655 19.9165C68.9931 19.9791 69.0331 20.0354 69.083 20.0821C69.1329 20.1288 69.1917 20.1649 69.2558 20.1883C69.32 20.2117 69.3882 20.2218 69.4564 20.218C69.5245 20.2143 69.5912 20.1968 69.6525 20.1666C69.7137 20.1363 69.7682 20.094 69.8127 20.0421C69.8573 19.9903 69.8908 19.9299 69.9115 19.8647C69.9322 19.7995 69.9395 19.7307 69.9329 19.6626C69.9264 19.5945 69.9062 19.5284 69.8736 19.4683C68.2139 16.0919 65.6085 13.6064 62.3456 12.5807C59.2872 11.6162 55.9464 12.1001 52.6729 13.8618C49.3995 15.6236 46.1726 18.6553 43.2476 22.8358C43.2476 22.8364 43.2476 22.8371 43.2476 22.8377C42.2055 24.3429 40.4336 25.2691 38.523 25.2691H38.5151C36.6032 25.2691 34.8348 24.354 33.7668 22.8139C33.7668 22.8133 33.7668 22.8126 33.7668 22.812C28.9489 15.9269 23.2085 12.077 17.9273 12.077ZM70.2357 21.2095C70.1563 21.2132 70.079 21.2355 70.0098 21.2746C69.9407 21.3137 69.8816 21.3686 69.8376 21.4348C69.7935 21.501 69.7655 21.5767 69.756 21.6557C69.7464 21.7348 69.7555 21.8149 69.7826 21.8898C70.0014 22.5231 70.1923 23.1843 70.3504 23.869C70.3625 23.9369 70.3881 24.0016 70.4259 24.0592C70.4637 24.1168 70.5128 24.1661 70.5703 24.204C70.6277 24.242 70.6922 24.2678 70.7599 24.28C70.8276 24.2921 70.8971 24.2903 70.9641 24.2747C71.031 24.2591 71.0941 24.2299 71.1495 24.189C71.2049 24.1481 71.2514 24.0964 71.2862 24.0369C71.321 23.9774 71.3433 23.9114 71.3518 23.843C71.3603 23.7746 71.3548 23.7052 71.3357 23.639C71.1697 22.9204 70.9711 22.225 70.7402 21.5566C70.7053 21.4515 70.6372 21.3607 70.5461 21.2981C70.455 21.2354 70.346 21.2043 70.2357 21.2095ZM71.1853 25.2711C71.1147 25.2745 71.0456 25.2927 70.9824 25.3245C70.9192 25.3563 70.8634 25.401 70.8185 25.4557C70.7735 25.5105 70.7406 25.574 70.7216 25.6423C70.7027 25.7106 70.6982 25.7821 70.7085 25.8522C70.8483 26.8884 70.9222 27.9651 70.9222 29.0769C70.9222 29.3199 70.9145 29.5726 70.9064 29.8305C70.9022 29.9651 70.9515 30.0959 71.0435 30.1941C71.1355 30.2923 71.2627 30.3498 71.397 30.354C71.5313 30.3582 71.6618 30.3088 71.7598 30.2165C71.8578 30.1243 71.9151 29.9968 71.9193 29.8622C71.9274 29.6043 71.9352 29.3415 71.9352 29.0769C71.9352 27.9202 71.8595 26.7992 71.7136 25.7173C71.6982 25.5898 71.6351 25.4728 71.5371 25.39C71.4391 25.3071 71.3134 25.2647 71.1853 25.2711ZM24.3593 27.3079C24.1377 27.3004 23.9198 27.3659 23.7389 27.4945C23.5581 27.6232 23.4243 27.8077 23.3582 28.0198L18.9937 42.0211L15.5849 35.9486C15.5022 35.8014 15.3842 35.6772 15.2416 35.5872C15.099 35.4972 14.9362 35.4443 14.7681 35.4332C14.5999 35.4222 14.4317 35.4534 14.2786 35.524C14.1255 35.5946 13.9924 35.7024 13.8913 35.8375L11.1571 39.4926H1.02739C0.893165 39.4907 0.759896 39.5155 0.635333 39.5657C0.51077 39.6159 0.397397 39.6904 0.301804 39.7848C0.206211 39.8793 0.130303 39.9919 0.0784918 40.116C0.0266808 40.2402 0 40.3734 0 40.508C0 40.6425 0.0266808 40.7757 0.0784918 40.8999C0.130303 41.024 0.206211 41.1366 0.301804 41.2311C0.397397 41.3256 0.51077 41.4 0.635333 41.4502C0.759896 41.5004 0.893165 41.5252 1.02739 41.5233H11.6636C11.821 41.5234 11.9763 41.4867 12.1171 41.4161C12.2579 41.3456 12.3803 41.2431 12.4747 41.1168L14.5818 38.3007L18.3784 45.0673C18.4754 45.2401 18.6206 45.3807 18.7963 45.4717C18.972 45.5627 19.1704 45.6002 19.3671 45.5795C19.5638 45.5589 19.7501 45.481 19.9031 45.3554C20.0562 45.2298 20.1692 45.0621 20.2283 44.873L24.3811 31.5539L30.4608 48.9663C30.5267 49.1545 30.6463 49.3191 30.8049 49.4395C30.9634 49.56 31.1538 49.631 31.3524 49.6437C31.5509 49.6564 31.7488 49.6102 31.9214 49.5109C32.0939 49.4116 32.2334 49.2635 32.3226 49.0852L37.5932 38.5188L41.7004 45.107C41.7876 45.2469 41.9075 45.3635 42.0497 45.4465C42.1919 45.5296 42.3521 45.5767 42.5166 45.5837C42.681 45.5907 42.8447 45.5575 42.9934 45.4869C43.1422 45.4162 43.2715 45.3104 43.3703 45.1784L46.1045 41.5233H50.6628C50.7098 41.5233 50.7568 41.52 50.8033 41.5134C51.2534 43.2643 52.8308 44.5695 54.7147 44.5695C56.9465 44.5695 58.7666 42.7451 58.7666 40.508C58.7666 38.2708 56.9465 36.4464 54.7147 36.4464C52.8317 36.4464 51.2562 37.7509 50.8053 39.5005C50.758 39.4945 50.7104 39.4918 50.6628 39.4926H45.598C45.4406 39.4925 45.2853 39.5292 45.1445 39.5998C45.0037 39.6703 44.8812 39.7728 44.7868 39.8991L42.6343 42.7767L38.3529 35.9089C38.2575 35.756 38.1233 35.6313 37.9639 35.5476C37.8046 35.464 37.6259 35.4243 37.4462 35.4328C37.2665 35.4413 37.0923 35.4976 36.9415 35.5959C36.7907 35.6942 36.6687 35.831 36.5881 35.9922L31.5806 46.0311L25.2813 27.9881C25.2139 27.7947 25.0898 27.6263 24.9253 27.5049C24.7608 27.3835 24.5635 27.3148 24.3593 27.3079ZM71.1754 31.3635C71.059 31.37 70.9484 31.4165 70.8623 31.4953C70.7761 31.5741 70.7197 31.6802 70.7026 31.7958C69.5401 39.0567 63.8639 46.1999 57.2353 52.2127C50.7057 58.1357 43.3254 62.9252 38.5151 65.7936C32.0553 61.9436 20.919 54.586 13.5233 45.7654C13.4804 45.7143 13.428 45.6722 13.3689 45.6415C13.3098 45.6108 13.2452 45.592 13.1789 45.5863C13.1126 45.5806 13.0458 45.5881 12.9823 45.6082C12.9188 45.6284 12.86 45.6609 12.809 45.7039C12.7581 45.7468 12.7161 45.7994 12.6855 45.8587C12.6549 45.9179 12.6362 45.9826 12.6305 46.0491C12.6248 46.1156 12.6322 46.1826 12.6523 46.2462C12.6724 46.3098 12.7049 46.3688 12.7478 46.4198C20.3658 55.5056 31.7773 62.9934 38.252 66.8368C38.3302 66.8832 38.4193 66.9077 38.5102 66.9077C38.601 66.9077 38.6902 66.8832 38.7684 66.8368C43.6059 63.9643 51.204 59.0529 57.9139 52.9663C64.6237 46.8798 70.4746 39.6228 71.7017 31.9584C71.7149 31.8831 71.711 31.8058 71.6902 31.7323C71.6695 31.6587 71.6324 31.5908 71.5818 31.5336C71.5312 31.4764 71.4684 31.4314 71.398 31.402C71.3277 31.3725 71.2516 31.3593 71.1754 31.3635V31.3635ZM54.7147 37.4618C56.399 37.4618 57.7536 38.8196 57.7536 40.508C57.7536 42.1963 56.399 43.5541 54.7147 43.5541C53.0616 43.5541 51.7347 42.2438 51.6857 40.5992C51.6913 40.5378 51.6913 40.4761 51.6857 40.4147C51.7357 38.771 53.0623 37.4618 54.7147 37.4618Z" fill="black"/>
</svg>
