<svg fill="#000000" xmlns="http://www.w3.org/2000/svg"  viewBox="0 0 100 100" width="100px" height="100px"><path d="M 37.240234 9 C 32.759163 9 29.318616 9.9198441 26.990234 10.851562 C 24.661853 11.783281 23.384766 12.771484 23.384766 12.771484 A 1.0001 1.0001 0 0 0 23.464844 14.404297 C 24.02884 14.762092 24.707683 15.955824 25.289062 17.646484 C 25.870442 19.337145 26.411806 21.450629 27.146484 23.533203 C 27.881163 25.615777 28.807256 27.683423 30.263672 29.291016 C 31.720085 30.898608 33.772422 32 36.414062 32 C 40.258995 32 42.693575 30.026958 44.013672 28.107422 C 44.51085 27.384482 44.83436 26.719465 45.074219 26.140625 C 46.623451 29.097957 47.628617 33.1265 48.201172 36.607422 C 48.716572 39.740866 48.866633 41.905664 48.929688 43 L 23 43 C 21.35503 43 20 44.35503 20 46 L 20 53 C 20 54.64497 21.35503 56 23 56 L 24.121094 56 L 27.333984 80.896484 C 27.783333 84.37952 30.763418 87 34.275391 87 L 65.724609 87 C 69.236582 87 72.216667 84.37952 72.666016 80.896484 L 75.878906 56 L 77 56 C 78.64497 56 80 54.64497 80 53 L 80 46 C 80 44.35503 78.64497 43 77 43 L 51.021484 43 C 51.130392 36.246787 52.289152 32.282803 53.394531 30.072266 C 53.612922 29.635528 53.82643 29.285168 54.03125 28.972656 C 54.141458 29.43918 54.279621 29.935782 54.480469 30.466797 C 54.886989 31.541587 55.507729 32.660675 56.5 33.535156 C 57.492271 34.409637 58.870224 35 60.560547 35 C 62.681036 35 64.435732 34.237593 65.828125 33.113281 C 67.220518 31.98897 68.282259 30.528181 69.224609 29.056641 C 71.10931 26.113559 72.640298 23.19488 74.404297 22.414062 A 1.0001 1.0001 0 0 0 74.558594 20.669922 C 72.705221 19.424448 66.857271 15 59.720703 15 C 57.204137 15 55.236815 15.799223 53.929688 17.072266 C 52.622559 18.345308 52 20.050149 52 21.726562 C 52 24.299838 53.066836 25.785879 53.5625 26.375 C 53.543478 26.393477 53.530891 26.3988 53.511719 26.417969 C 52.964378 26.9652 52.275201 27.838404 51.605469 29.177734 C 50.940195 30.508149 50.295451 32.306206 49.8125 34.701172 C 49.115533 31.013027 48.062738 26.998429 46.128906 23.978516 C 47.089422 22.926486 49 20.452397 49 17.140625 C 49 15.482983 48.50403 13.368263 46.708984 11.728516 C 44.913938 10.088769 41.946013 9 37.240234 9 z M 37.240234 11 C 41.638456 11 44.050921 12.009825 45.359375 13.205078 C 46.667829 14.400331 47 15.858267 47 17.140625 C 47 19.624483 45.22557 21.956055 44.417969 22.892578 C 43.375545 21.71834 42.224737 20.665104 41.015625 19.710938 C 41.056863 18.196081 41.483964 17.256398 41.900391 16.699219 C 42.337812 16.113948 42.710937 15.953125 42.710938 15.953125 A 0.50005 0.50005 0 0 0 42.466797 14.998047 A 0.50005 0.50005 0 0 0 42.289062 15.046875 C 42.289062 15.046875 41.662188 15.348833 41.099609 16.101562 C 40.640237 16.716202 40.201523 17.653236 40.054688 18.978516 C 38.248278 17.669236 36.337934 16.578207 34.449219 15.710938 C 31.619936 14.411772 28.862885 13.601346 26.566406 13.234375 C 26.850397 13.088561 27.195447 12.924641 27.734375 12.708984 C 29.854244 11.860703 33.032306 11 37.240234 11 z M 25.748047 14.126953 C 28.035149 14.417176 31.004142 15.22824 34.033203 16.619141 C 34.706713 16.928406 35.381914 17.276641 36.054688 17.642578 C 35.81347 17.691212 35.573536 17.741777 35.400391 17.800781 C 34.943464 17.956494 34.675781 18.154297 34.675781 18.154297 A 0.50028316 0.50028316 0 1 0 35.291016 18.943359 C 35.291016 18.943359 35.374086 18.866829 35.722656 18.748047 C 36.071229 18.629259 36.644497 18.5 37.5 18.5 A 0.50005 0.50005 0 0 0 37.533203 18.498047 C 39.797779 19.88989 41.96089 21.610452 43.773438 23.679688 A 1.0001 1.0001 0 0 0 43.705078 23.904297 C 43.705078 23.904297 43.424637 25.432192 42.365234 26.972656 C 41.305831 28.513121 39.603131 30 36.414062 30 C 34.297204 30 32.902413 29.22772 31.744141 27.949219 C 30.585869 26.670717 29.728275 24.839441 29.033203 22.869141 C 28.338132 20.89884 27.803949 18.805777 27.181641 16.996094 C 26.799843 15.885819 26.3264 14.943051 25.748047 14.126953 z M 59.720703 17 C 64.764727 17 68.820319 19.368379 71.378906 21.054688 C 68.043251 21.163941 65.139043 21.487406 62.640625 22.105469 C 63.543229 20.897759 63.970703 19.667969 63.970703 19.667969 A 0.50005 0.50005 0 0 0 63.466797 18.994141 A 0.50005 0.50005 0 0 0 63.029297 19.332031 C 63.029297 19.332031 62.205763 21.521174 60.742188 22.650391 C 60.159141 22.846508 59.605037 23.066486 59.068359 23.302734 A 0.50005 0.50005 0 0 0 58.853516 23.394531 C 57.573293 23.977644 56.425662 24.686108 55.392578 25.525391 A 1.0001 1.0001 0 0 0 55.376953 25.509766 C 55.376953 25.509766 54 24.199502 54 21.726562 C 54 20.538977 54.428301 19.380317 55.326172 18.505859 C 56.224043 17.631402 57.617269 17 59.720703 17 z M 33.185547 19.154297 A 0.50005 0.50005 0 0 0 32.837891 19.294922 C 32.294399 19.806313 32.052734 20.277344 32.052734 20.277344 A 0.50005 0.50005 0 1 0 32.947266 20.722656 C 32.947266 20.722656 33.084929 20.436045 33.523438 20.023438 A 0.50005 0.50005 0 0 0 33.185547 19.154297 z M 71.634766 22.048828 C 70.001966 23.639853 68.855285 25.9262 67.541016 27.978516 C 66.645866 29.37635 65.686748 30.656733 64.572266 31.556641 C 63.457784 32.456548 62.220057 33 60.560547 33 C 59.31087 33 58.483745 32.618113 57.822266 32.035156 C 57.160787 31.4522 56.678089 30.628225 56.349609 29.759766 C 55.790428 28.281359 55.72026 26.978723 55.705078 26.558594 C 56.728037 25.675899 57.883669 24.940652 59.193359 24.335938 C 59.294713 24.379191 59.442987 24.454433 59.648438 24.59375 C 60.040155 24.859372 60.568522 25.331767 61.070312 26.173828 A 0.50009585 0.50009585 0 0 0 61.929688 25.662109 C 61.397771 24.769493 60.816408 24.211075 60.332031 23.859375 C 60.595531 23.759035 60.861567 23.661742 61.136719 23.570312 A 0.50005 0.50005 0 0 0 61.183594 23.552734 C 63.989028 22.628104 67.439034 22.172607 71.634766 22.048828 z M 62.251953 27.078125 A 0.50005 0.50005 0 0 0 61.792969 27.740234 C 61.874929 27.992852 61.950223 28.247729 62.011719 28.525391 A 0.50005 0.50005 0 1 0 62.988281 28.310547 C 62.917781 27.992208 62.832184 27.703023 62.744141 27.431641 A 0.50005 0.50005 0 0 0 62.251953 27.078125 z M 23 45 L 77 45 C 77.56503 45 78 45.43497 78 46 L 78 53 C 78 53.56503 77.56503 54 77 54 L 75.535156 54 L 75.5 54 L 75 54 L 25.041016 54 L 25 54 L 24.5 54 L 23 54 C 22.43497 54 22 53.56503 22 53 L 22 46 C 22 45.43497 22.43497 45 23 45 z M 26.009766 55 L 73.990234 55 L 70.683594 80.640625 C 70.360943 83.141589 68.246636 85 65.724609 85 L 34.275391 85 C 31.753364 85 29.639057 83.141589 29.316406 80.640625 L 26.009766 55 z M 33.5 81 A 0.50005 0.50005 0 1 0 33.5 82 L 54.5 82 A 0.50005 0.50005 0 1 0 54.5 81 L 33.5 81 z M 57.5 81 A 0.50005 0.50005 0 1 0 57.5 82 L 62.5 82 A 0.50005 0.50005 0 1 0 62.5 81 L 57.5 81 z M 65.5 81 A 0.50005 0.50005 0 1 0 65.5 82 L 66.5 82 A 0.50005 0.50005 0 1 0 66.5 81 L 65.5 81 z"/></svg>