<svg width="22" height="22" viewBox="0 0 22 22" fill="none" xmlns="http://www.w3.org/2000/svg">
<path d="M18 0.7C19.8 0.7 21.3 2.2 21.3 4V18C21.3 19.8 19.8 21.3 18 21.3H4C2.2 21.3 0.7 19.8 0.7 18V4C0.7 2.2 2.2 0.7 4 0.7H18ZM18 0H4C1.8 0 0 1.8 0 4V18C0 20.2 1.8 22 4 22H18C20.2 22 22 20.2 22 18V4C22 1.8 20.2 0 18 0Z" fill="#EA5761"/>
<path d="M19.7002 9.7499C19.5502 9.7499 19.4502 9.6499 19.4502 9.4999V7.6499C19.4502 7.4999 19.5502 7.3999 19.7002 7.3999C19.8502 7.3999 19.9502 7.4999 19.9502 7.6499V9.4999C19.9502 9.6499 19.8502 9.7499 19.7002 9.7499Z" fill="#EA5761"/>
<path d="M19.75 6.5501C19.6 6.5501 19.5 6.4501 19.5 6.3001V5.3501C19.5 5.2001 19.6 5.1001 19.75 5.1001C19.9 5.1001 20 5.2001 20 5.3501V6.3001C20 6.4001 19.9 6.5501 19.75 6.5501Z" fill="#EA5761"/>
<path d="M17.6498 19.95H4.39981C3.09981 19.95 2.0498 18.9 2.0498 17.6V4.35C2.0498 3.05 3.09981 2 4.39981 2H16.3998C16.5498 2 16.6498 2.1 16.6498 2.25C16.6498 2.4 16.4998 2.5 16.3998 2.5H4.39981C3.34981 2.5 2.5498 3.35 2.5498 4.35V17.55C2.5498 18.6 3.39981 19.4 4.39981 19.4H17.5998C18.6498 19.4 19.4498 18.55 19.4498 17.55V10.8C19.4498 10.65 19.5498 10.55 19.6998 10.55C19.8498 10.55 19.9498 10.65 19.9498 10.8V17.6C19.9998 18.9 18.9498 19.95 17.6498 19.95Z" fill="#EA5761"/>
<path d="M7.50019 6.94995C7.60019 6.94995 7.75019 6.99995 7.80019 7.09995L11.0002 10.2999L14.2002 7.09995C14.3002 6.99995 14.4002 6.94995 14.5002 6.94995C14.6002 6.94995 14.7502 6.99995 14.8002 7.09995L14.8502 7.14995C15.0502 7.34995 15.0502 7.59995 14.8502 7.79995L11.7002 11L14.9002 14.2C15.1002 14.4 15.1002 14.65 14.9002 14.85L14.8502 14.9C14.7502 15 14.6502 15.0499 14.5502 15.0499C14.4502 15.0499 14.3002 15 14.2502 14.9L11.0002 11.7L7.75019 14.95C7.65019 15.05 7.5502 15.1 7.4502 15.1C7.3502 15.1 7.20019 15.05 7.15019 14.95L7.10019 14.9C6.90019 14.7 6.90019 14.45 7.10019 14.25L10.3502 11L7.15019 7.79995C6.95019 7.59995 6.95019 7.34995 7.15019 7.14995L7.2002 7.09995C7.2502 6.99995 7.35019 6.94995 7.50019 6.94995ZM7.50019 6.44995C7.25019 6.44995 7.00019 6.54995 6.85019 6.74995L6.80019 6.79995C6.45019 7.14995 6.45019 7.79995 6.80019 8.14995L9.65019 11L6.75019 13.9C6.55019 14.1 6.4502 14.2999 6.4502 14.5499C6.4502 14.7999 6.55019 15.05 6.75019 15.2L6.80019 15.25C7.00019 15.45 7.2002 15.5499 7.4502 15.5499C7.7002 15.5499 7.95019 15.45 8.10019 15.25L11.0002 12.35L13.8502 15.2C14.0502 15.4 14.2502 15.5 14.5002 15.5C14.7502 15.5 15.0002 15.4 15.1502 15.2L15.2002 15.15C15.5502 14.8 15.5502 14.1499 15.2002 13.7999L12.4002 11L15.2502 8.14995C15.6002 7.79995 15.6002 7.14995 15.2502 6.79995L15.2002 6.74995C15.0002 6.54995 14.8002 6.44995 14.5502 6.44995C14.3002 6.44995 14.0502 6.54995 13.9002 6.74995L11.0002 9.54995L8.15019 6.69995C7.95019 6.54995 7.75019 6.44995 7.50019 6.44995Z" fill="#EA5761"/>
</svg>
