<?xml version="1.0"?><svg fill="#000000" xmlns="http://www.w3.org/2000/svg"  viewBox="0 0 100 100" width="100px" height="100px">    <path d="M 46 13 C 44.346 13 43 14.346 43 16 L 43 18 L 32.265625 18 C 30.519625 18 28.876516 18.930734 27.978516 20.427734 L 26.433594 23 L 23 23 C 20.794 23 19 24.794 19 27 C 19 29.206 20.794 31 23 31 L 24.074219 31 L 27.648438 77.460938 C 27.887437 80.566937 30.515859 83 33.630859 83 L 66.369141 83 C 69.485141 83 72.113563 80.566937 72.351562 77.460938 L 75.925781 31 L 77 31 C 79.206 31 81 29.206 81 27 C 81 24.794 79.206 23 77 23 L 73.566406 23 L 72.021484 20.427734 C 71.124484 18.930734 69.480375 18 67.734375 18 L 57 18 L 57 16 C 57 14.346 55.654 13 54 13 L 46 13 z M 46 15 L 54 15 C 54.551 15 55 15.449 55 16 L 55 18 L 45 18 L 45 16 C 45 15.449 45.449 15 46 15 z M 32.265625 20 L 67.736328 20 C 68.784328 20 69.769594 20.558031 70.308594 21.457031 L 71.833984 24 L 68.5 24 C 68.224 24 68 24.224 68 24.5 C 68 24.776 68.224 25 68.5 25 L 73 25 L 73.5 25 L 77 25 C 78.103 25 79 25.897 79 27 C 79 28.103 78.103 29 77 29 L 23 29 C 21.897 29 21 28.103 21 27 C 21 25.897 21.897 25 23 25 L 25.5 25 L 27 25 L 61.5 25 C 61.776 25 62 24.776 62 24.5 C 62 24.224 61.776 24 61.5 24 L 28.166016 24 L 29.691406 21.457031 C 30.230406 20.558031 31.217625 20 32.265625 20 z M 64.5 24 C 64.224 24 64 24.224 64 24.5 C 64 24.776 64.224 25 64.5 25 L 66.5 25 C 66.776 25 67 24.776 67 24.5 C 67 24.224 66.776 24 66.5 24 L 64.5 24 z M 26.080078 31 L 28.085938 31 L 30.431641 61.546875 C 30.451641 61.809875 30.670687 62.007812 30.929688 62.007812 C 30.942688 62.007812 30.95575 62.008812 30.96875 62.007812 C 31.24375 61.986812 31.450688 61.745703 31.429688 61.470703 L 29.087891 31 L 70.912109 31 L 70.650391 34.392578 C 70.629391 34.667578 70.836328 34.908688 71.111328 34.929688 C 71.124328 34.930687 71.137391 34.929688 71.150391 34.929688 C 71.409391 34.929688 71.628438 34.73075 71.648438 34.46875 L 71.914062 31 L 73.919922 31 L 70.357422 77.306641 C 70.198422 79.377641 68.446141 81 66.369141 81 L 33.630859 81 C 31.553859 81 29.801578 79.377641 29.642578 77.306641 L 26.080078 31 z M 71.03125 35.978516 C 70.75825 35.957516 70.515141 36.1625 70.494141 36.4375 L 70.417969 37.435547 C 70.396969 37.710547 70.601953 37.951656 70.876953 37.972656 C 70.889953 37.973656 70.903016 37.972656 70.916016 37.972656 C 71.175016 37.972656 71.394062 37.774719 71.414062 37.511719 L 71.490234 36.513672 C 71.511234 36.239672 71.30625 35.999516 71.03125 35.978516 z M 37 40.009766 C 36.482 40.009766 35.963938 40.198172 35.585938 40.576172 C 35.207937 40.954172 35 41.456234 35 41.990234 C 35 42.524234 35.207937 43.026297 35.585938 43.404297 L 47.171875 54.990234 L 35.585938 66.576172 C 35.207937 66.954172 35 67.456234 35 67.990234 C 35 68.524234 35.207937 69.026297 35.585938 69.404297 C 36.341938 70.160297 37.658062 70.160297 38.414062 69.404297 L 50 57.818359 L 61.585938 69.404297 C 61.963938 69.782297 62.466 69.990234 63 69.990234 C 63.534 69.990234 64.036063 69.782297 64.414062 69.404297 C 64.792063 69.026297 65 68.525234 65 67.990234 C 65 67.455234 64.792062 66.954172 64.414062 66.576172 L 52.828125 54.990234 L 64.414062 43.404297 C 64.792063 43.027297 65 42.525234 65 41.990234 C 65 41.456234 64.792062 40.954172 64.414062 40.576172 C 63.658062 39.820172 62.341938 39.820172 61.585938 40.576172 L 50 52.162109 L 38.414062 40.576172 C 38.036062 40.198172 37.518 40.009766 37 40.009766 z M 70.720703 40.011719 C 70.444703 39.987719 70.204594 40.197656 70.183594 40.472656 L 68.414062 63.490234 C 68.393062 63.765234 68.6 64.006344 68.875 64.027344 C 68.888 64.028344 68.901062 64.029297 68.914062 64.029297 C 69.173063 64.029297 69.392109 63.829406 69.412109 63.566406 L 71.181641 40.548828 C 71.202641 40.274828 70.995703 40.032719 70.720703 40.011719 z M 37 40.990234 C 37.256 40.990234 37.512031 41.087703 37.707031 41.283203 L 49.646484 53.222656 C 49.841484 53.417656 50.158516 53.417656 50.353516 53.222656 L 62.292969 41.283203 C 62.682969 40.892203 63.315078 40.892203 63.705078 41.283203 C 64.096078 41.672203 64.097031 42.307266 63.707031 42.697266 L 51.767578 54.636719 C 51.572578 54.831719 51.572578 55.14875 51.767578 55.34375 L 63.707031 67.283203 C 64.097031 67.673203 64.097031 68.307266 63.707031 68.697266 C 63.329031 69.074266 62.670969 69.074266 62.292969 68.697266 L 50.353516 56.757812 C 50.255516 56.659813 50.128 56.611328 50 56.611328 C 49.872 56.611328 49.744484 56.660812 49.646484 56.757812 L 37.707031 68.697266 C 37.329031 69.074266 36.670969 69.074266 36.292969 68.697266 C 35.902969 68.307266 35.902969 67.673203 36.292969 67.283203 L 48.232422 55.345703 C 48.427422 55.150703 48.427422 54.833672 48.232422 54.638672 L 36.292969 42.697266 C 35.902969 42.307266 35.902969 41.673203 36.292969 41.283203 C 36.487969 41.087703 36.744 40.990234 37 40.990234 z M 31.203125 65.052734 C 30.928125 65.073734 30.723141 65.314844 30.744141 65.589844 L 31.632812 77.148438 C 31.652812 77.411438 31.871859 77.609375 32.130859 77.609375 C 32.143859 77.609375 32.156922 77.610375 32.169922 77.609375 C 32.444922 77.588375 32.649906 77.347266 32.628906 77.072266 L 31.740234 65.513672 C 31.719234 65.237672 31.476125 65.027734 31.203125 65.052734 z"/></svg>