<svg fill="#000000" xmlns="http://www.w3.org/2000/svg"  viewBox="0 0 100 100" width="100px" height="100px"><path d="M 41 9 C 39.906937 9 39 9.9069372 39 11 L 39 19 C 39 20.093063 39.906937 21 41 21 L 44 21 L 44 24.458984 C 28.124264 27.086601 16 40.884097 16 57.5 C 16 75.989693 31.010294 91 49.5 91 C 67.989706 91 83 75.989693 83 57.5 C 83 49.677662 80.306701 42.482986 75.806641 36.779297 L 77.828125 34.757812 L 78.476562 35.40625 C 79.239265 36.168952 80.50683 36.168952 81.269531 35.40625 L 85.40625 31.267578 C 86.169576 30.504252 86.169972 29.240384 85.408203 28.476562 L 85.408203 28.474609 L 85.40625 28.474609 L 78.509766 21.578125 C 78.128415 21.196774 77.620909 21.005859 77.113281 21.005859 C 76.605653 21.005859 76.098148 21.196774 75.716797 21.578125 L 71.578125 25.716797 C 70.815423 26.479498 70.815423 27.747064 71.578125 28.509766 L 72.224609 29.15625 L 70.197266 31.175781 C 65.864471 27.763424 60.673526 25.398018 55 24.458984 L 55 21 L 58 21 C 59.093063 21 60 20.093063 60 19 L 60 11 C 60 9.9069372 59.093063 9 58 9 L 41 9 z M 41 11 L 43 11 L 43 14.5 A 0.50005 0.50005 0 1 0 44 14.5 L 44 11 L 46 11 L 46 19 L 44 19 L 44 17.5 A 0.50005 0.50005 0 0 0 43.492188 16.992188 A 0.50005 0.50005 0 0 0 43 17.5 L 43 19 L 41 19 L 41 11 z M 47 11 L 49 11 L 49 17.5 A 0.50005 0.50005 0 1 0 50 17.5 L 50 11 L 52 11 L 52 19 L 47 19 L 47 11 z M 53 11 L 55 11 L 55 12.5 A 0.50005 0.50005 0 1 0 56 12.5 L 56 11 L 58 11 L 58 19 L 56 19 L 56 14.5 A 0.50005 0.50005 0 0 0 55.492188 13.992188 A 0.50005 0.50005 0 0 0 55 14.5 L 55 19 L 53 19 L 53 11 z M 45 21 L 54 21 L 54 24.310547 C 52.527266 24.112371 51.026667 24 49.5 24 C 47.973333 24 46.472734 24.112371 45 24.310547 L 45 21 z M 77.113281 23.009766 L 83.974609 29.871094 L 79.873047 33.974609 L 73.009766 27.113281 L 77.113281 23.009766 z M 49.5 26 C 66.908827 26 81 40.091185 81 57.5 C 81 74.908815 66.908827 89 49.5 89 C 32.091173 89 18 74.908815 18 57.5 C 18 40.091185 32.091173 26 49.5 26 z M 72.931641 29.863281 L 77.121094 34.052734 L 75.173828 35.998047 C 73.901878 34.481218 72.500261 33.079377 70.982422 31.808594 L 72.931641 29.863281 z M 49.492188 29.992188 A 0.50005 0.50005 0 0 0 49.402344 30.001953 C 41.891875 30.028251 35.089632 33.068877 30.140625 37.976562 A 0.50005 0.50005 0 0 0 29.980469 38.136719 C 25.069644 43.086916 22.027211 49.892241 22.001953 57.40625 A 0.50005 0.50005 0 0 0 22.001953 57.408203 A 0.50005 0.50005 0 0 0 22.001953 57.597656 C 22.028242 65.105633 25.067838 71.90492 29.972656 76.853516 A 0.50005 0.50005 0 0 0 30.144531 77.025391 C 35.094153 81.932205 41.895726 84.9728 49.40625 84.998047 A 0.50005 0.50005 0 0 0 49.408203 84.998047 A 0.50005 0.50005 0 0 0 49.597656 84.998047 C 57.105633 84.971758 63.90492 81.932162 68.853516 77.027344 A 0.50005 0.50005 0 0 0 69.025391 76.855469 C 73.932205 71.905847 76.9728 65.102321 76.998047 57.591797 A 0.50005 0.50005 0 0 0 76.996094 57.390625 C 76.992653 56.738638 76.962953 56.096121 76.916016 55.462891 A 0.50005 0.50005 0 1 0 75.919922 55.537109 C 75.955988 56.023672 75.969164 56.511575 75.980469 57 L 73.5 57 A 0.50005 0.50005 0 1 0 73.5 58 L 75.986328 58 C 75.857438 64.942088 73.066499 71.226869 68.585938 75.878906 L 66.824219 74.117188 A 0.50005 0.50005 0 0 0 66.464844 73.966797 A 0.50005 0.50005 0 0 0 66.117188 74.824219 L 67.878906 76.585938 C 63.226869 81.066499 56.942088 83.857438 50 83.986328 L 50 81.5 A 0.50005 0.50005 0 0 0 49.492188 80.992188 A 0.50005 0.50005 0 0 0 49 81.5 L 49 83.986328 C 42.057912 83.857438 35.773131 81.066499 31.121094 76.585938 L 32.882812 74.824219 A 0.50005 0.50005 0 0 0 32.519531 73.966797 A 0.50005 0.50005 0 0 0 32.175781 74.117188 L 30.414062 75.878906 C 25.933501 71.226869 23.142562 64.942088 23.013672 58 L 25.5 58 A 0.50005 0.50005 0 1 0 25.5 57 L 23.013672 57 C 23.142562 50.057912 25.933501 43.773131 30.414062 39.121094 L 32.175781 40.882812 A 0.50005 0.50005 0 1 0 32.882812 40.175781 L 31.121094 38.414062 C 35.773131 33.933501 42.057912 31.142562 49 31.013672 L 49 33.5 A 0.50005 0.50005 0 1 0 50 33.5 L 50 31.017578 C 56.941307 31.146798 63.220119 33.940481 67.871094 38.421875 L 66.117188 40.175781 A 0.50005 0.50005 0 1 0 66.824219 40.882812 L 68.585938 39.121094 C 70.20035 40.797828 71.597307 42.685194 72.728516 44.740234 A 0.50005 0.50005 0 1 0 73.603516 44.259766 C 72.36932 42.017631 70.823293 39.969588 69.037109 38.164062 A 0.50005 0.50005 0 0 0 68.820312 37.955078 C 63.876849 33.066591 57.098964 30.032833 49.607422 30.003906 A 0.50005 0.50005 0 0 0 49.492188 29.992188 z M 36.5 43.003906 C 36.114964 43.003928 35.729971 43.14819 35.439453 43.439453 C 34.857661 44.021245 34.856928 44.979511 35.439453 45.560547 L 46.193359 56.314453 C 46.067528 56.697219 46 57.099054 46 57.5 C 46 58.361111 46.285317 59.22894 46.876953 59.894531 C 47.468589 60.560122 48.375 61 49.5 61 C 49.9312 61 50.318129 60.917967 50.679688 60.800781 L 53.173828 63.294922 C 52.932834 64.280129 53.111528 65.354774 53.878906 66.121094 L 55.878906 68.121094 C 57.046052 69.28824 58.953046 69.287946 60.121094 68.121094 C 61.289458 66.953925 61.287825 65.04488 60.121094 63.876953 L 58.121094 61.876953 C 57.354655 61.110514 56.281348 60.931756 55.296875 61.171875 L 52.806641 58.683594 C 52.932075 58.301367 53 57.900317 53 57.5 C 53 56.638889 52.714683 55.77106 52.123047 55.105469 C 51.531411 54.439878 50.625 54 49.5 54 C 49.0688 54 48.681871 54.082033 48.320312 54.199219 L 37.560547 43.439453 C 37.269651 43.148557 36.885036 43.003885 36.5 43.003906 z M 36.5 43.996094 C 36.626861 43.996002 36.753412 44.046381 36.853516 44.146484 L 47.369141 54.662109 C 47.187903 54.794893 47.021845 54.942465 46.876953 55.105469 C 46.800016 55.192023 46.742404 55.289878 46.675781 55.382812 L 36.146484 44.853516 C 35.94701 44.654551 35.946277 44.346692 36.146484 44.146484 C 36.245967 44.046747 36.373139 43.996185 36.5 43.996094 z M 75.587891 49.992188 A 0.50005 0.50005 0 0 0 75.537109 49.994141 A 0.50005 0.50005 0 0 0 75.095703 50.628906 C 75.267221 51.268201 75.407714 51.924826 75.533203 52.591797 A 0.50005 0.50005 0 1 0 76.515625 52.408203 C 76.387114 51.725174 76.241029 51.043799 76.060547 50.371094 A 0.50005 0.50005 0 0 0 75.587891 49.992188 z M 49.5 55 C 50.375 55 50.96859 55.310122 51.376953 55.769531 C 51.785317 56.22894 52 56.861111 52 57.5 C 52 58.138889 51.785317 58.77106 51.376953 59.230469 C 50.96859 59.689878 50.375 60 49.5 60 C 48.625 60 48.03141 59.689878 47.623047 59.230469 C 47.214683 58.77106 47 58.138889 47 57.5 C 47 56.861111 47.214683 56.22894 47.623047 55.769531 C 48.03141 55.310122 48.625 55 49.5 55 z M 52.324219 59.617188 L 54.736328 62.027344 A 0.50005 0.50005 0 0 0 55.271484 62.138672 C 55.989138 61.857851 56.830973 62.000893 57.414062 62.583984 L 59.414062 64.583984 C 60.199331 65.370057 60.199699 66.629232 59.414062 67.414062 C 58.62811 68.199211 57.370791 68.198917 56.585938 67.414062 L 54.585938 65.414062 C 54.003344 64.832273 53.857897 63.987068 54.138672 63.269531 A 0.50005 0.50005 0 0 0 54.027344 62.734375 L 51.630859 60.337891 C 51.812097 60.205107 51.978155 60.057535 52.123047 59.894531 C 52.199984 59.807977 52.257596 59.710122 52.324219 59.617188 z"/></svg>