<svg fill="#000000" xmlns="http://www.w3.org/2000/svg"  viewBox="0 0 100 100" width="100px" height="100px"><path d="M 21.5 6 C 12.951431 6 6 12.951431 6 21.5 C 6 28.483687 10.640587 34.397517 17 36.330078 L 17 82 C 17 83.64497 18.35503 85 20 85 L 80 85 C 81.64497 85 83 83.64497 83 82 L 83 25 C 83 21.145666 79.854334 18 76 18 L 72 18 L 72 16 A 1.0001 1.0001 0 0 0 70.984375 14.986328 A 1.0001 1.0001 0 0 0 70 16 L 70 18 L 66 18 L 66 16 A 1.0001 1.0001 0 0 0 64.984375 14.986328 A 1.0001 1.0001 0 0 0 64 16 L 64 18 L 60 18 L 60 16 A 1.0001 1.0001 0 0 0 58.984375 14.986328 A 1.0001 1.0001 0 0 0 58 16 L 58 18 L 54 18 L 54 16 A 1.0001 1.0001 0 0 0 52.984375 14.986328 A 1.0001 1.0001 0 0 0 52 16 L 52 18 L 48 18 L 48 16 A 1.0001 1.0001 0 0 0 46.984375 14.986328 A 1.0001 1.0001 0 0 0 46 16 L 46 18 L 42 18 L 42 16 A 1.0001 1.0001 0 0 0 40.984375 14.986328 A 1.0001 1.0001 0 0 0 40 16 L 40 18 L 36.587891 18 C 34.99584 11.134544 28.84362 6 21.5 6 z M 21.5 8 C 28.967689 8 35 14.032311 35 21.5 C 35 28.967689 28.967689 35 21.5 35 C 14.032311 35 8 28.967689 8 21.5 C 8 14.032311 14.032311 8 21.5 8 z M 21.5 11 C 15.706932 11 11 15.706932 11 21.5 C 11 27.293068 15.706932 32 21.5 32 C 27.293068 32 32 27.293068 32 21.5 C 32 15.706932 27.293068 11 21.5 11 z M 21.5 12 C 26.752627 12 31 16.247373 31 21.5 C 31 26.752627 26.752627 31 21.5 31 C 16.247373 31 12 26.752627 12 21.5 C 12 16.247373 16.247373 12 21.5 12 z M 21.492188 13.992188 A 0.50005 0.50005 0 0 0 21 14.5 L 21 21.707031 L 26.146484 26.853516 A 0.50005 0.50005 0 1 0 26.853516 26.146484 L 22 21.292969 L 22 14.5 A 0.50005 0.50005 0 0 0 21.492188 13.992188 z M 36.923828 20 L 40 20 L 40 22 A 1.0001 1.0001 0 1 0 42 22 L 42 20 L 46 20 L 46 22 A 1.0001 1.0001 0 1 0 48 22 L 48 20 L 52 20 L 52 22 A 1.0001 1.0001 0 1 0 54 22 L 54 20 L 58 20 L 58 22 A 1.0001 1.0001 0 1 0 60 22 L 60 20 L 64 20 L 64 22 A 1.0001 1.0001 0 1 0 66 22 L 66 20 L 70 20 L 70 22 A 1.0001 1.0001 0 1 0 72 22 L 72 20 L 76 20 C 78.773666 20 81 22.226334 81 25 L 81 33 L 77.5 33 A 0.50005 0.50005 0 1 0 77.5 34 L 81 34 L 81 82 C 81 82.56503 80.56503 83 80 83 L 20 83 C 19.43497 83 19 82.56503 19 82 L 19 36.779297 C 19.815878 36.912403 20.646999 37 21.5 37 C 24.915147 37 28.064954 35.877502 30.628906 34 L 71.5 34 A 0.50005 0.50005 0 1 0 71.5 33 L 31.857422 33 C 35.00638 30.161258 37 26.064761 37 21.5 C 37 20.993414 36.971537 20.494254 36.923828 20 z M 73.5 24 C 72.12521 24 71 25.12521 71 26.5 C 71 27.87479 72.12521 29 73.5 29 C 74.87479 29 76 27.87479 76 26.5 C 76 25.12521 74.87479 24 73.5 24 z M 73.5 25 C 74.334349 25 75 25.665651 75 26.5 C 75 27.334349 74.334349 28 73.5 28 C 72.665651 28 72 27.334349 72 26.5 C 72 25.665651 72.665651 25 73.5 25 z M 73.5 33 A 0.50005 0.50005 0 1 0 73.5 34 L 75.5 34 A 0.50005 0.50005 0 1 0 75.5 33 L 73.5 33 z M 37.5 42 A 0.50005 0.50005 0 1 0 37.5 43 L 40 43 L 40 47 L 36 47 L 36 44.5 A 0.50005 0.50005 0 1 0 35 44.5 L 35 47.5 A 0.50005 0.50005 0 0 0 35.5 48 L 40.5 48 A 0.50005 0.50005 0 0 0 41 47.5 L 41 42.5 A 0.50005 0.50005 0 0 0 40.5 42 L 37.5 42 z M 43.5 42 A 0.50005 0.50005 0 0 0 43 42.5 L 43 47.5 A 0.50005 0.50005 0 0 0 43.5 48 L 48.5 48 A 0.50005 0.50005 0 0 0 49 47.5 L 49 42.5 A 0.50005 0.50005 0 0 0 48.5 42 L 43.5 42 z M 51.5 42 A 0.50005 0.50005 0 0 0 51 42.5 L 51 47.5 A 0.50005 0.50005 0 0 0 51.5 48 L 56.5 48 A 0.50005 0.50005 0 0 0 57 47.5 L 57 42.5 A 0.50005 0.50005 0 0 0 56.5 42 L 51.5 42 z M 59.5 42 A 0.50005 0.50005 0 0 0 59 42.5 L 59 47.5 A 0.50005 0.50005 0 0 0 59.5 48 L 64.5 48 A 0.50005 0.50005 0 0 0 65 47.5 L 65 42.5 A 0.50005 0.50005 0 0 0 64.5 42 L 59.5 42 z M 67.5 42 A 0.50005 0.50005 0 0 0 67 42.5 L 67 47.5 A 0.50005 0.50005 0 0 0 67.5 48 L 72.5 48 A 0.50005 0.50005 0 0 0 73 47.5 L 73 42.5 A 0.50005 0.50005 0 0 0 72.5 42 L 67.5 42 z M 44 43 L 48 43 L 48 47 L 44 47 L 44 43 z M 52 43 L 56 43 L 56 47 L 52 47 L 52 43 z M 60 43 L 64 43 L 64 47 L 60 47 L 60 43 z M 68 43 L 72 43 L 72 47 L 68 47 L 68 43 z M 27.5 51 A 0.50005 0.50005 0 0 0 27 51.5 L 27 56.5 A 0.50005 0.50005 0 0 0 27.5 57 L 32.5 57 A 0.50005 0.50005 0 0 0 33 56.5 L 33 51.5 A 0.50005 0.50005 0 0 0 32.5 51 L 27.5 51 z M 35.5 51 A 0.50005 0.50005 0 0 0 35 51.5 L 35 56.5 A 0.50005 0.50005 0 0 0 35.5 57 L 40.5 57 A 0.50005 0.50005 0 0 0 41 56.5 L 41 51.5 A 0.50005 0.50005 0 0 0 40.5 51 L 35.5 51 z M 43.5 51 A 0.50005 0.50005 0 0 0 43 51.5 L 43 56.5 A 0.50005 0.50005 0 0 0 43.5 57 L 48.5 57 A 0.50005 0.50005 0 0 0 49 56.5 L 49 51.5 A 0.50005 0.50005 0 0 0 48.5 51 L 43.5 51 z M 51.5 51 A 0.50005 0.50005 0 0 0 51 51.5 L 51 56.5 A 0.50005 0.50005 0 0 0 51.5 57 L 56.5 57 A 0.50005 0.50005 0 0 0 57 56.5 L 57 51.5 A 0.50005 0.50005 0 0 0 56.5 51 L 51.5 51 z M 59.5 51 A 0.50005 0.50005 0 0 0 59 51.5 L 59 56.5 A 0.50005 0.50005 0 0 0 59.5 57 L 64.5 57 A 0.50005 0.50005 0 0 0 65 56.5 L 65 51.5 A 0.50005 0.50005 0 0 0 64.5 51 L 59.5 51 z M 67.5 51 A 0.50005 0.50005 0 0 0 67 51.5 L 67 56.5 A 0.50005 0.50005 0 0 0 67.5 57 L 72.5 57 A 0.50005 0.50005 0 0 0 73 56.5 L 73 51.5 A 0.50005 0.50005 0 0 0 72.5 51 L 67.5 51 z M 28 52 L 32 52 L 32 56 L 28 56 L 28 52 z M 36 52 L 40 52 L 40 56 L 36 56 L 36 52 z M 44 52 L 48 52 L 48 56 L 44 56 L 44 52 z M 52 52 L 56 52 L 56 56 L 52 56 L 52 52 z M 60 52 L 64 52 L 64 56 L 60 56 L 60 52 z M 68 52 L 72 52 L 72 56 L 68 56 L 68 52 z M 27.5 60 A 0.50005 0.50005 0 0 0 27 60.5 L 27 65.5 A 0.50005 0.50005 0 0 0 27.5 66 L 32.5 66 A 0.50005 0.50005 0 0 0 33 65.5 L 33 60.5 A 0.50005 0.50005 0 0 0 32.5 60 L 27.5 60 z M 35.5 60 A 0.50005 0.50005 0 0 0 35 60.5 L 35 65.5 A 0.50005 0.50005 0 0 0 35.5 66 L 40.5 66 A 0.50005 0.50005 0 0 0 41 65.5 L 41 60.5 A 0.50005 0.50005 0 0 0 40.5 60 L 35.5 60 z M 43.5 60 A 0.50005 0.50005 0 0 0 43 60.5 L 43 65.5 A 0.50005 0.50005 0 0 0 43.5 66 L 48.5 66 A 0.50005 0.50005 0 0 0 49 65.5 L 49 60.5 A 0.50005 0.50005 0 0 0 48.5 60 L 43.5 60 z M 51.5 60 A 0.50005 0.50005 0 0 0 51 60.5 L 51 65.5 A 0.50005 0.50005 0 0 0 51.5 66 L 56.5 66 A 0.50005 0.50005 0 0 0 57 65.5 L 57 60.5 A 0.50005 0.50005 0 0 0 56.5 60 L 51.5 60 z M 59.5 60 A 0.50005 0.50005 0 0 0 59 60.5 L 59 65.5 A 0.50005 0.50005 0 0 0 59.5 66 L 64.5 66 A 0.50005 0.50005 0 0 0 65 65.5 L 65 60.5 A 0.50005 0.50005 0 0 0 64.5 60 L 59.5 60 z M 67.5 60 A 0.50005 0.50005 0 0 0 67 60.5 L 67 65.5 A 0.50005 0.50005 0 0 0 67.5 66 L 72.5 66 A 0.50005 0.50005 0 0 0 73 65.5 L 73 60.5 A 0.50005 0.50005 0 0 0 72.5 60 L 67.5 60 z M 28 61 L 32 61 L 32 65 L 28 65 L 28 61 z M 36 61 L 40 61 L 40 65 L 36 65 L 36 61 z M 44 61 L 48 61 L 48 65 L 44 65 L 44 61 z M 52 61 L 56 61 L 56 65 L 52 65 L 52 61 z M 60 61 L 64 61 L 64 65 L 60 65 L 60 61 z M 68 61 L 72 61 L 72 65 L 68 65 L 68 61 z M 27.5 69 A 0.50005 0.50005 0 0 0 27 69.5 L 27 74.5 A 0.50005 0.50005 0 0 0 27.5 75 L 32.5 75 A 0.50005 0.50005 0 0 0 33 74.5 L 33 69.5 A 0.50005 0.50005 0 0 0 32.5 69 L 27.5 69 z M 35.5 69 A 0.50005 0.50005 0 0 0 35 69.5 L 35 74.5 A 0.50005 0.50005 0 0 0 35.5 75 L 40.5 75 A 0.50005 0.50005 0 0 0 41 74.5 L 41 69.5 A 0.50005 0.50005 0 0 0 40.5 69 L 35.5 69 z M 43.5 69 A 0.50005 0.50005 0 0 0 43 69.5 L 43 74.5 A 0.50005 0.50005 0 0 0 43.5 75 L 48.5 75 A 0.50005 0.50005 0 0 0 49 74.5 L 49 69.5 A 0.50005 0.50005 0 0 0 48.5 69 L 43.5 69 z M 51.5 69 A 0.50005 0.50005 0 0 0 51 69.5 L 51 74.5 A 0.50005 0.50005 0 0 0 51.5 75 L 54.46875 75 A 0.50005 0.50005 0 1 0 54.46875 74 L 52 74 L 52 70 L 56 70 L 56 71.53125 A 0.50005 0.50005 0 1 0 57 71.53125 L 57 69.5 A 0.50005 0.50005 0 0 0 56.5 69 L 51.5 69 z M 28 70 L 32 70 L 32 74 L 28 74 L 28 70 z M 36 70 L 40 70 L 40 74 L 36 74 L 36 70 z M 44 70 L 48 70 L 48 74 L 44 74 L 44 70 z"/></svg>