<svg fill="#000000" xmlns="http://www.w3.org/2000/svg"  viewBox="0 0 100 100" width="100px" height="100px"><path d="M 50.019531 10 A 1.0001 1.0001 0 0 0 49.269531 10.316406 C 49.269531 10.316406 41.981294 18.104399 34.689453 28.162109 C 27.397613 38.21982 20 50.462963 20 60 C 20 76.55646 33.44354 90 50 90 C 66.55646 90 80 76.55646 80 60 C 80 50.462963 72.602387 38.21982 65.310547 28.162109 C 58.018706 18.104399 50.730469 10.316406 50.730469 10.316406 A 1.0001 1.0001 0 0 0 50.019531 10 z M 50 12.509766 C 51.030592 13.62515 57.065365 20.201218 63.689453 29.337891 C 70.897613 39.28018 78 51.537037 78 60 C 78 75.47554 65.47554 88 50 88 C 34.52446 88 22 75.47554 22 60 C 22 51.537037 29.102387 39.28018 36.310547 29.337891 C 42.934635 20.201218 48.969408 13.62515 50 12.509766 z M 50.005859 17.222656 A 0.50005 0.50005 0 0 0 49.623047 17.400391 C 45.110809 22.585528 38.975555 30.245881 33.955078 38.091797 C 28.934601 45.937712 25 53.93639 25 60 C 25 73.780177 36.218818 85 50 85 C 63.781182 85 75 73.780177 75 60 C 75 58.259925 74.663053 56.363687 74.083984 54.361328 A 0.5000799 0.5000799 0 1 0 73.123047 54.638672 C 73.683978 56.578313 74 58.390075 74 60 C 74 73.237823 63.238818 84 50 84 C 36.761182 84 26 73.237823 26 60 C 26 54.37861 29.816602 46.413944 34.796875 38.630859 C 39.777148 30.847775 45.892144 23.212503 50.378906 18.056641 A 0.50005 0.50005 0 0 0 50.005859 17.222656 z M 68.128906 41.994141 A 0.50005 0.50005 0 0 0 67.720703 42.751953 C 67.912672 43.082456 68.098529 43.411804 68.285156 43.744141 A 0.50015757 0.50015757 0 1 0 69.158203 43.255859 C 68.970831 42.922196 68.781968 42.585544 68.585938 42.248047 A 0.50005 0.50005 0 0 0 68.128906 41.994141 z M 69.810547 44.994141 A 0.50005 0.50005 0 0 0 69.371094 45.732422 C 69.900694 46.736973 70.397661 47.73277 70.851562 48.710938 A 0.50005 0.50005 0 1 0 71.757812 48.289062 C 71.295715 47.29323 70.792259 46.285027 70.255859 45.267578 A 0.50005 0.50005 0 0 0 69.810547 44.994141 z"/></svg>