<?xml version="1.0"?><svg fill="#000000" xmlns="http://www.w3.org/2000/svg"  viewBox="0 0 100 100" width="100px" height="100px">    <path d="M 30.613281 17.613281 C 23.445281 17.613281 17.613281 23.445281 17.613281 30.613281 L 17.613281 69.613281 C 17.613281 76.781281 23.445281 82.613281 30.613281 82.613281 L 69.613281 82.613281 C 76.781281 82.613281 82.613281 76.781281 82.613281 69.613281 L 82.613281 30.613281 C 82.613281 23.445281 76.782281 17.613281 69.613281 17.613281 L 30.613281 17.613281 z M 30.613281 19.613281 L 69.613281 19.613281 C 75.678281 19.613281 80.613281 24.548281 80.613281 30.613281 L 80.613281 69.613281 C 80.613281 75.678281 75.678281 80.613281 69.613281 80.613281 L 30.613281 80.613281 C 24.548281 80.613281 19.613281 75.678281 19.613281 69.613281 L 19.613281 30.613281 C 19.613281 24.548281 24.548281 19.613281 30.613281 19.613281 z M 33.451172 22.613281 C 27.475172 22.613281 22.613281 27.475172 22.613281 33.451172 L 22.613281 66.777344 C 22.613281 72.753344 27.475172 77.613281 33.451172 77.613281 L 66.777344 77.613281 C 72.753344 77.613281 77.613281 72.753344 77.613281 66.777344 L 77.613281 48.113281 C 77.613281 47.837281 77.390281 47.613281 77.113281 47.613281 C 76.837281 47.613281 76.613281 47.837281 76.613281 48.113281 L 76.613281 66.777344 C 76.613281 72.201344 72.201344 76.613281 66.777344 76.613281 L 33.451172 76.613281 C 28.027172 76.613281 23.613281 72.201344 23.613281 66.777344 L 23.613281 33.451172 C 23.613281 28.027172 28.027172 23.613281 33.451172 23.613281 L 67.113281 23.613281 C 67.389281 23.613281 67.613281 23.389281 67.613281 23.113281 C 67.613281 22.837281 67.389281 22.613281 67.113281 22.613281 L 33.451172 22.613281 z M 49.964844 36.498047 C 43.651844 36.498047 37.708563 38.927938 33.226562 43.335938 C 33.131563 43.429938 33.076172 43.556453 33.076172 43.689453 C 33.076172 43.822453 33.129609 43.952875 33.224609 44.046875 L 36.654297 47.441406 C 36.847297 47.631406 37.157516 47.635266 37.353516 47.447266 C 40.754516 44.172266 45.235656 42.367187 49.972656 42.367188 C 54.742656 42.367188 59.244344 44.192859 62.652344 47.505859 C 62.749344 47.600859 62.875953 47.648438 63.001953 47.648438 C 63.128953 47.648438 63.255516 47.600906 63.353516 47.503906 L 66.773438 44.115234 C 66.868437 44.021234 66.921875 43.893766 66.921875 43.759766 C 66.921875 43.626766 66.868437 43.498297 66.773438 43.404297 C 62.284438 38.951297 56.315844 36.498047 49.964844 36.498047 z M 77.113281 36.613281 C 76.837281 36.613281 76.613281 36.837281 76.613281 37.113281 L 76.613281 39.113281 C 76.613281 39.389281 76.837281 39.613281 77.113281 39.613281 C 77.389281 39.613281 77.613281 39.389281 77.613281 39.113281 L 77.613281 37.113281 C 77.613281 36.837281 77.389281 36.613281 77.113281 36.613281 z M 49.966797 37.498047 C 55.882797 37.498047 61.451984 39.718719 65.708984 43.761719 L 62.994141 46.451172 C 59.444141 43.169172 54.839656 41.367187 49.972656 41.367188 C 45.138656 41.368187 40.557625 43.148578 37.015625 46.392578 L 34.294922 43.695312 C 38.542922 39.695312 44.087797 37.498047 49.966797 37.498047 z M 77.113281 40.613281 C 76.837281 40.613281 76.613281 40.837281 76.613281 41.113281 L 76.613281 45.113281 C 76.613281 45.389281 76.837281 45.613281 77.113281 45.613281 C 77.389281 45.613281 77.613281 45.389281 77.613281 45.113281 L 77.613281 41.113281 C 77.613281 40.837281 77.390281 40.613281 77.113281 40.613281 z M 49.980469 45.677734 C 46.139469 45.677734 42.522875 47.155891 39.796875 49.837891 C 39.701875 49.931891 39.646484 50.058406 39.646484 50.191406 C 39.646484 50.324406 39.699922 50.454828 39.794922 50.548828 L 43.224609 53.945312 C 43.416609 54.135312 43.723922 54.138125 43.919922 53.953125 C 45.564922 52.402125 47.718328 51.548828 49.986328 51.548828 C 52.271328 51.548828 54.437891 52.413375 56.087891 53.984375 C 56.183891 54.077375 56.309594 54.123047 56.433594 54.123047 C 56.560594 54.123047 56.687156 54.075516 56.785156 53.978516 L 60.205078 50.589844 C 60.300078 50.495844 60.353516 50.367375 60.353516 50.234375 C 60.353516 50.101375 60.300078 49.972906 60.205078 49.878906 C 57.474078 47.169906 53.844469 45.677734 49.980469 45.677734 z M 49.980469 46.677734 C 53.408469 46.677734 56.639719 47.939234 59.136719 50.240234 L 56.417969 52.933594 C 54.631969 51.391594 52.366328 50.548828 49.986328 50.548828 C 47.623328 50.548828 45.37275 51.380344 43.59375 52.902344 L 40.865234 50.201172 C 43.357234 47.925172 46.573469 46.677734 49.980469 46.677734 z M 50.087891 56.707031 C 48.200891 56.707031 46.664062 58.230516 46.664062 60.103516 C 46.664062 61.976516 48.199891 63.501953 50.087891 63.501953 C 51.975891 63.501953 53.511719 61.976516 53.511719 60.103516 C 53.511719 58.230516 51.975891 56.707031 50.087891 56.707031 z M 50.089844 57.707031 C 51.425844 57.707031 52.513672 58.782516 52.513672 60.103516 C 52.513672 61.425516 51.426844 62.501953 50.089844 62.501953 C 48.752844 62.501953 47.664062 61.425516 47.664062 60.103516 C 47.664062 58.782516 48.752844 57.707031 50.089844 57.707031 z"/></svg>